<?xml version="1.0" encoding="utf-8"?>
<!-- Generator: Adobe Illustrator 23.0.1, SVG Export Plug-In . SVG Version: 6.00 Build 0)  -->
<svg version="1.1" id="Camada_1" xmlns:svgjs="http://svgjs.com/svgjs"
	 xmlns="http://www.w3.org/2000/svg" xmlns:xlink="http://www.w3.org/1999/xlink" x="0px" y="0px" viewBox="0 0 512 512"
	 style="enable-background:new 0 0 512 512;" xml:space="preserve">
<style type="text/css">
	.st0{fill:#E28086;}
	.st1{fill:#DD636E;}
	.st2{fill:#ED9D9D;}
	.st3{fill:#F9F6F9;}
	.st4{fill:#B48E84;}
	.st5{fill:#B28968;}
	.st6{fill:#FFE07D;}
	.st7{fill:#FFD064;}
	.st8{fill:#DCE6FD;}
	.st9{fill:#C8DAFD;}
</style>
<g transform="matrix(0.99,0,0,0.99,2.55999874114994,2.5600037384035375)">
	<g>
		<g>
			<path class="st0" d="M373.2,406h-326C21.2,406,0,384.8,0,358.7V60.3C0,34.2,21.2,13,47.2,13h326c26.1,0,47.2,21.2,47.2,47.2
				v298.4C420.5,384.8,399.3,406,373.2,406L373.2,406z"/>
			<path class="st1" d="M65,406H47.2C21.1,406,0,384.8,0,358.7V60.3C0,34.2,21.1,13,47.2,13H65c-26.1,0-47.2,21.2-47.2,47.2v298.4
				C17.7,384.8,38.9,406,65,406z"/>
			<path class="st2" d="M33,359.8V109c0-7.3,5.9-13.1,13.1-13.1h328.2c7.3,0,13.1,5.9,13.1,13.1v250.8c0,7.3-5.9,13.1-13.1,13.1
				H46.1C38.9,373,33,367.1,33,359.8z"/>
			<g>
				<circle class="st0" cx="56.3" cy="54.9" r="15.5"/>
				<circle class="st0" cx="105.5" cy="54.9" r="15.5"/>
			</g>
		</g>
		<g>
			<path class="st3" d="M85.6,124.4c-4.3,0-7.7,3.5-7.7,7.7v55.6c0,2.4-1.2,4.5-3.2,5.6c-3.7,2.1-7.9-1.8-8.2-2.1c-3-3-7.9-3-10.9,0
				c-3,3-3,7.9,0,10.9c3.2,3.2,9.5,7.3,16.8,7.3c3.1,0,6.5-0.7,9.8-2.6c6.9-3.8,11.1-11.1,11.1-19.1v-55.6
				C93.3,127.9,89.9,124.4,85.6,124.4z"/>
			<path class="st3" d="M245.8,161.7c2.7-3.9,4.3-8.6,4.3-13.6c0-13.1-10.6-23.7-23.7-23.7h-20.2c-4.3,0-7.7,3.5-7.7,7.7v69.5
				c0,2.1,0.8,4,2.3,5.5c1.4,1.4,3.4,2.3,5.5,2.3h0c0,0,18.6-0.1,23.7-0.1c14.6,0,26.4-11.9,26.4-26.4
				C256.4,174.3,252.2,166.6,245.8,161.7L245.8,161.7z M226.4,139.9c4.6,0,8.3,3.7,8.3,8.3s-3.7,8.3-8.3,8.3c-1.5,0-12.5,0-12.5,0
				v-16.6L226.4,139.9L226.4,139.9z M229.9,193.9c-2.9,0-10.3,0-16,0.1v-22c1.7,0,16,0,16,0c6.1,0,11,4.9,11,11
				C240.9,188.9,236,193.9,229.9,193.9z"/>
			<path class="st3" d="M145.9,124.4c-23.4,0-42.5,19.1-42.5,42.5s19.1,42.5,42.5,42.5s42.5-19.1,42.5-42.5S169.3,124.4,145.9,124.4
				z M145.9,194c-14.9,0-27-12.1-27-27s12.1-27,27-27s27,12.1,27,27S160.8,194,145.9,194z"/>
		</g>
		<g>
			<path class="st4" d="M504,491c-10.6,10.6-27.9,10.6-38.6,0l-76.8-76.8l38.6-38.6l76.8,76.8C514.7,463.1,514.7,480.3,504,491z"/>
			<path class="st5" d="M510.3,481.1c-1.3,3.6-3.4,7-6.3,9.9c-10.7,10.7-27.9,10.7-38.6,0l-76.8-76.8l16.2-16.2l76.8,76.8
				C489.4,482.5,500.7,484.6,510.3,481.1L510.3,481.1z"/>
			<circle class="st6" cx="353.5" cy="340.5" r="107"/>
			<path class="st7" d="M364.6,446.9c-3.6,0.4-7.3,0.6-11,0.6c-59.1,0-107-47.9-107-107c0-59.1,47.9-107,107-107
				c3.7,0,7.4,0.2,11,0.6c-53.9,5.5-96,51.1-96,106.4C268.6,395.9,310.7,441.4,364.6,446.9L364.6,446.9z"/>
			<circle class="st8" cx="353.5" cy="340.5" r="69.6"/>
			<path class="st9" d="M363.5,409.4c-3.2,0.5-6.6,0.7-10,0.7c-38.4,0-69.6-31.1-69.6-69.6c0-38.4,31.1-69.6,69.6-69.6
				c3.4,0,6.7,0.2,10,0.7c-33.7,4.8-59.6,33.8-59.6,68.9C303.9,375.6,329.8,404.6,363.5,409.4z"/>
			<path class="st0" d="M451.5,384.3l-54.2,54.2c-7.3,7.3-7.3,19.2,0,26.5c7.3,7.3,19.2,7.3,26.5,0l54.2-54.2
				c7.3-7.3,7.3-19.2,0-26.5C470.7,376.9,458.8,376.9,451.5,384.3z"/>
			<path class="st1" d="M438,443.1c4.8,0,9.6-1.8,13.3-5.5L423.8,465c-3.7,3.7-8.5,5.5-13.3,5.5c-4.8,0-9.6-1.8-13.3-5.5
				c-7.3-7.3-7.3-19.2,0-26.5l27.4-27.4c-7.3,7.3-7.3,19.2,0,26.5C428.4,441.3,433.2,443.1,438,443.1z"/>
		</g>
		<g>
			<path class="st3" d="M171.7,261.2H69c-4.3,0-7.7-3.5-7.7-7.7s3.5-7.7,7.7-7.7h102.8c4.3,0,7.7,3.5,7.7,7.7
				C179.5,257.8,176,261.2,171.7,261.2z"/>
			<path class="st3" d="M171.7,294.1H69c-4.3,0-7.7-3.5-7.7-7.7s3.5-7.7,7.7-7.7h102.8c4.3,0,7.7,3.5,7.7,7.7
				C179.5,290.6,176,294.1,171.7,294.1z"/>
			<path class="st3" d="M171.7,327H69c-4.3,0-7.7-3.5-7.7-7.7s3.5-7.7,7.7-7.7h102.8c4.3,0,7.7,3.5,7.7,7.7S176,327,171.7,327z"/>
		</g>
	</g>
</g>
</svg>
